<?xml version="1.0" encoding="UTF-8" standalone="no"?>
<!DOCTYPE svg PUBLIC "-//W3C//DTD SVG 1.1//EN" "http://www.w3.org/Graphics/SVG/1.1/DTD/svg11.dtd">
<svg width="100%" height="100%" viewBox="0 0 28 28" version="1.1" xmlns="http://www.w3.org/2000/svg" xmlns:xlink="http://www.w3.org/1999/xlink" xml:space="preserve" xmlns:serif="http://www.serif.com/" style="fill-rule:evenodd;clip-rule:evenodd;stroke-linejoin:round;stroke-miterlimit:2;">
    <g transform="matrix(1,0,0,1,-102,-933)">
        <g id="Page-1">
            <g id="Icon-Set">
                <path id="grid" d="M128,941C128,942.104 127.104,943 126,943L122,943C120.896,943 120,942.104 120,941L120,937C120,935.896 120.896,935 122,935L126,935C127.104,935 128,935.896 128,937L128,941ZM126,933L122,933C119.791,933 118,934.791 118,937L118,941C118,943.209 119.791,945 122,945L126,945C128.209,945 130,943.209 130,941L130,937C130,934.791 128.209,933 126,933ZM124.414,958.243C123.634,959.023 122.366,959.023 121.586,958.243L118.757,955.414C117.977,954.634 117.977,953.366 118.757,952.586L121.586,949.757C122.366,948.977 123.634,948.977 124.414,949.757L127.243,952.586C128.023,953.366 128.023,954.634 127.243,955.414L124.414,958.243ZM128.657,951.172L125.828,948.343C124.266,946.781 121.734,946.781 120.172,948.343L117.343,951.172C115.781,952.734 115.781,955.266 117.343,956.828L120.172,959.657C121.734,961.219 124.266,961.219 125.828,959.657L128.657,956.828C130.219,955.266 130.219,952.734 128.657,951.172ZM112,941C112,942.104 111.104,943 110,943L106,943C104.896,943 104,942.104 104,941L104,937C104,935.896 104.896,935 106,935L110,935C111.104,935 112,935.896 112,937L112,941ZM110,933L106,933C103.791,933 102,934.791 102,937L102,941C102,943.209 103.791,945 106,945L110,945C112.209,945 114,943.209 114,941L114,937C114,934.791 112.209,933 110,933ZM112,957C112,958.104 111.104,959 110,959L106,959C104.896,959 104,958.104 104,957L104,953C104,951.896 104.896,951 106,951L110,951C111.104,951 112,951.896 112,953L112,957ZM110,949L106,949C103.791,949 102,950.791 102,953L102,957C102,959.209 103.791,961 106,961L110,961C112.209,961 114,959.209 114,957L114,953C114,950.791 112.209,949 110,949Z"/>
            </g>
        </g>
    </g>
</svg>
