<?xml version="1.0" encoding="UTF-8" standalone="no"?>
<!DOCTYPE svg PUBLIC "-//W3C//DTD SVG 1.1//EN" "http://www.w3.org/Graphics/SVG/1.1/DTD/svg11.dtd">
<svg width="100%" height="100%" viewBox="0 0 16 16" version="1.1" xmlns="http://www.w3.org/2000/svg" xmlns:xlink="http://www.w3.org/1999/xlink" xml:space="preserve" xmlns:serif="http://www.serif.com/" style="fill-rule:evenodd;clip-rule:evenodd;stroke-linejoin:round;stroke-miterlimit:2;">
    <path d="M0.5,9L1.5,9C2.16,9 2.17,10 1.5,10L0.5,10C-0.16,10 -0.168,9 0.5,9ZM0.5,6L1.5,6C2.16,6 2.17,7 1.5,7L0.5,7C-0.16,7 -0.168,6 0.5,6ZM0.5,3L1.5,3C2.16,3 2.17,4 1.5,4L0.5,4C-0.16,4 -0.168,3 0.5,3ZM8.16,6.128L6.5,7.798L5.838,7.136C5.421,6.719 4.694,7.406 5.148,7.861L6.152,8.871C6.337,9.045 6.659,9.045 6.842,8.871L8.852,6.854C9.318,6.386 8.572,5.718 8.162,6.129L8.16,6.128ZM4.5,3C3.678,3 3,3.678 3,4.5L3,9.5C3,10.148 4,10.15 4,9.5L4,4.5C4,4.214 4.214,4 4.5,4L9.5,4C9.786,4 10,4.214 10,4.5L10,9.5C10,9.786 9.786,10 9.5,10L8.5,10C7.844,10 7.846,11 8.5,11L9.5,11C10.322,11 11,10.322 11,9.5L11,5L13.25,5L15,7.625L15,9.5C15,10.18 16,10.15 16,9.5L16,7.5C16,7.4 15.965,7.3 15.906,7.22L13.906,4.22C13.816,4.086 13.66,4 13.5,4L10.906,4C10.7,3.415 10.15,3 9.5,3L4.5,3ZM5.5,10C4.675,10 4,10.682 4,11.5C4,12.318 4.675,13 5.5,13C6.325,13 7,12.318 7,11.5C7,10.682 6.325,10 5.5,10ZM5.5,11C5.783,11 6,11.22 6,11.5C6,11.78 5.783,12 5.5,12C5.217,12 5,11.78 5,11.5C5,11.22 5.217,11 5.5,11ZM13.5,10C12.675,10 12,10.682 12,11.5C12,12.318 12.675,13 13.5,13C14.325,13 15,12.318 15,11.5C15,10.682 14.325,10 13.5,10ZM13.5,11C13.783,11 14,11.22 14,11.5C14,11.78 13.783,12 13.5,12C13.217,12 13,11.78 13,11.5C13,11.22 13.217,11 13.5,11Z" style="fill-rule:nonzero;"/>
</svg>
