<svg xmlns="http://www.w3.org/2000/svg" width="25.636" height="19.939" viewBox="0 0 25.636 19.939">
  <path id="Icon_awesome-home" data-name="Icon awesome-home" d="M12.477,7.426,4.272,14.185v7.3a.712.712,0,0,0,.712.712l4.987-.013a.712.712,0,0,0,.708-.712v-4.26a.712.712,0,0,1,.712-.712H14.24a.712.712,0,0,1,.712.712v4.257a.712.712,0,0,0,.712.714l4.985.014a.712.712,0,0,0,.712-.712v-7.3l-8.2-6.754A.542.542,0,0,0,12.477,7.426ZM25.438,12.02,21.717,8.953V2.788a.534.534,0,0,0-.534-.534H18.691a.534.534,0,0,0-.534.534V6.02L14.173,2.741a2.136,2.136,0,0,0-2.715,0L.193,12.02a.534.534,0,0,0-.071.752l1.135,1.38a.534.534,0,0,0,.753.073L12.477,5.6a.542.542,0,0,1,.681,0l10.469,8.624a.534.534,0,0,0,.752-.071l1.135-1.38a.534.534,0,0,0-.076-.754Z" transform="translate(0.001 -2.254)" fill="#b7b7b7"/>
</svg>
