<svg xmlns="http://www.w3.org/2000/svg" width="23.75" height="20" viewBox="0 0 23.75 20">
  <path id="Path_10745" data-name="Path 10745" d="M5,7A1,1,0,0,0,5,9H7.219L9.844,19.5A1.982,1.982,0,0,0,11.781,21H23.25a1.968,1.968,0,0,0,1.906-1.469L27.75,10H11l.5,2H25.156L23.25,19H11.781L9.156,8.5A1.982,1.982,0,0,0,7.219,7ZM22,21a3,3,0,1,0,3,3A3.015,3.015,0,0,0,22,21Zm-9,0a3,3,0,1,0,3,3A3.015,3.015,0,0,0,13,21Zm0,2a1,1,0,1,1-1,1A.987.987,0,0,1,13,23Zm9,0a1,1,0,1,1-1,1A.987.987,0,0,1,22,23Z" transform="translate(-4 -7)" fill="#B6B6B6"/>
</svg>
