<?xml version="1.0" encoding="UTF-8" standalone="no"?>
<!DOCTYPE svg PUBLIC "-//W3C//DTD SVG 1.1//EN" "http://www.w3.org/Graphics/SVG/1.1/DTD/svg11.dtd">
<svg width="100%" height="100%" viewBox="0 0 24 24" version="1.1" xmlns="http://www.w3.org/2000/svg" xmlns:xlink="http://www.w3.org/1999/xlink" xml:space="preserve" xmlns:serif="http://www.serif.com/" style="fill-rule:evenodd;clip-rule:evenodd;stroke-linejoin:round;stroke-miterlimit:2;">
    <path d="M22,5L2,5C1.451,5 1,5.451 1,6L1,10C1.004,11.265 1.807,12.398 3,12.82L3,22C3,22.549 3.451,23 4,23L20,23C20.549,23 21,22.549 21,22L21,12.82C22.193,12.398 22.996,11.265 23,10L23,6C23,5.451 22.549,5 22,5ZM15,7L17,7L17,10C17,10.549 16.549,11 16,11C15.451,11 15,10.549 15,10L15,7ZM11,7L13,7L13,10C13,10.549 12.549,11 12,11C11.451,11 11,10.549 11,10L11,7ZM7,7L9,7L9,10C9,10.549 8.549,11 8,11C7.451,11 7,10.549 7,10L7,7ZM4,11C3.451,11 3,10.549 3,10L3,7L5,7L5,10C5,10.549 4.549,11 4,11ZM14,21L10,21L10,19C10,17.903 10.903,17 12,17C13.097,17 14,17.903 14,19L14,21ZM19,21L16,21L16,19C16,16.806 14.194,15 12,15C9.806,15 8,16.806 8,19L8,21L5,21L5,12.82C5.368,12.684 5.707,12.48 6,12.22C7.133,13.234 8.867,13.234 10,12.22C11.133,13.234 12.867,13.234 14,12.22C15.133,13.234 16.867,13.234 18,12.22C18.293,12.48 18.632,12.684 19,12.82L19,21ZM21,10C21,10.549 20.549,11 20,11C19.451,11 19,10.549 19,10L19,7L21,7L21,10ZM4.3,3L20,3C20.549,3 21,2.549 21,2C21,1.451 20.549,1 20,1L4.3,1C3.751,1 3.3,1.451 3.3,2C3.3,2.549 3.751,3 4.3,3Z" style="fill-rule:nonzero;"/>
</svg>
