<svg xmlns="http://www.w3.org/2000/svg" width="20" height="18" viewBox="0 0 20 18">
  <g id="Group_3227" data-name="Group 3227" transform="translate(0.275 -0.723)">
    <path id="User" d="M14.145,11.274a.852.852,0,1,0-.167,1.693h-.006a4.565,4.565,0,0,1,3.994,4.054H1.483a4.6,4.6,0,0,1,4-4.054h0a.852.852,0,0,0-.135-1.693H5.31a6.359,6.359,0,0,0-5.585,6.6.857.857,0,0,0,.855.852H18.87a.857.857,0,0,0,.855-.852h0A6.355,6.355,0,0,0,14.145,11.274Zm-4.421.26c2.725,0,4.706-2.147,4.706-5.405S12.449.723,9.724.723,5.018,2.87,5.018,6.128,7,11.533,9.724,11.533Zm0-9.107c1.79,0,3,1.41,3,3.7s-1.2,3.7-3,3.7-3-1.41-3-3.7S7.934,2.426,9.724,2.426Z" fill="#e51445" fill-rule="evenodd"/>
  </g>
</svg>
