<?xml version="1.0" encoding="UTF-8" standalone="no"?>
<!DOCTYPE svg PUBLIC "-//W3C//DTD SVG 1.1//EN" "http://www.w3.org/Graphics/SVG/1.1/DTD/svg11.dtd">
<svg width="100%" height="100%" viewBox="0 0 24 24" version="1.1" xmlns="http://www.w3.org/2000/svg" xmlns:xlink="http://www.w3.org/1999/xlink" xml:space="preserve" xmlns:serif="http://www.serif.com/" style="fill-rule:evenodd;clip-rule:evenodd;stroke-linejoin:round;stroke-miterlimit:2;">
    <rect x="0" y="0" width="24" height="24" style="fill:none;fill-rule:nonzero;"/>
    <path d="M2,4C2,3.451 2.451,3 3,3L21,3C21.549,3 22,3.451 22,4L22,9.5C20.629,9.5 19.5,10.629 19.5,12C19.5,13.371 20.629,14.5 22,14.5L22,20C22,20.549 21.549,21 21,21L3,21C2.451,21 2,20.549 2,20L2,4ZM8.085,19C8.296,18.401 8.865,17.998 9.5,17.998C10.135,17.998 10.704,18.401 10.915,19L20,19L20,16.032C18.47,15.274 17.498,13.707 17.498,12C17.498,10.293 18.47,8.726 20,7.968L20,5L10.915,5C10.704,5.599 10.135,6.002 9.5,6.002C8.865,6.002 8.296,5.599 8.085,5L4,5L4,19L8.085,19ZM9.5,11C8.677,11 8,10.323 8,9.5C8,8.677 8.677,8 9.5,8C10.323,8 11,8.677 11,9.5C11,10.323 10.323,11 9.5,11ZM9.5,16C8.677,16 8,15.323 8,14.5C8,13.677 8.677,13 9.5,13C10.323,13 11,13.677 11,14.5C11,15.323 10.323,16 9.5,16Z" style="fill-rule:nonzero;"/>
</svg>
